PathFileType	4	(X/Y/Z)	s11c0102.trc
DataRate	CameraRate	NumFrames	NumMarkers	Units	OrigDataRate	OrigDataStartFrame	OrigNumFrames
200	200	7	48	mm	200	750	2000
Frame#	Time	racr			lacr			c7			jug			rlel			rdr			llel			ldr			s2			lic			ric			lasi			rasi			rpsi			lpsi			rgt			lgt			rth1			rth2			rth3			rth4			rlfc			rmfc			rsh1			rsh2			rsh3			rsh4			rlmal			rcal			rtoe			rmt5			lth1			lth2			lth4			lth3			llfc			lmfc			llmal			lcal			lmt5			lsh1			lsh2			lsh3			lsh4			ltoe			SBIKE			LBIKE			RBIKE			
		X1	Y1	Z1	X2	Y2	Z2	X3	Y3	Z3	X4	Y4	Z4	X5	Y5	Z5	X6	Y6	Z6	X7	Y7	Z7	X8	Y8	Z8	X9	Y9	Z9	X10	Y10	Z10	X11	Y11	Z11	X12	Y12	Z12	X13	Y13	Z13	X14	Y14	Z14	X15	Y15	Z15	X16	Y16	Z16	X17	Y17	Z17	X18	Y18	Z18	X19	Y19	Z19	X20	Y20	Z20	X21	Y21	Z21	X22	Y22	Z22	X23	Y23	Z23	X24	Y24	Z24	X25	Y25	Z25	X26	Y26	Z26	X27	Y27	Z27	X28	Y28	Z28	X29	Y29	Z29	X30	Y30	Z30	X31	Y31	Z31	X32	Y32	Z32	X33	Y33	Z33	X34	Y34	Z34	X35	Y35	Z35	X36	Y36	Z36	X37	Y37	Z37	X38	Y38	Z38	X39	Y39	Z39	X40	Y40	Z40	X41	Y41	Z41	X42	Y42	Z42	X43	Y43	Z43	X44	Y44	Z44	X45	Y45	Z45	X46	Y46	Z46	X47	Y47	Z47	X48	Y48	Z48	
750	3.7500	504.525707	1343.537326	-66.582211	530.705071	1354.040889	-348.639070	467.366189	1422.148148	-213.608411	465.110759	1235.909359	-231.823837	554.558647	1099.107078	62.690995	765.445754	937.418130	-60.556374	533.333978	1117.235796	-552.986120	773.535779	923.651505	-472.264042	-107.982492	1209.911597	-297.904780	127.031103	1217.657518	-476.368672	70.085702	1241.632293	-69.646805	157.075075	1148.810530	-447.437041	102.555934	1191.007802	-117.386056	-75.846109	1288.559560	-249.811725	-62.932410	1273.588419	-340.778076	61.253771	1129.805094	-52.105299	26.989241	1069.857531	-479.587027	199.883756	1088.648539	-49.643980	289.168715	1091.568341	-56.080628	366.828382	1051.498523	-63.755258	296.004375	1126.039905	-69.090641	471.357737	1028.258999	-76.670086	487.246485	1007.244533	-212.589973	412.070020	887.726806	-72.082170	388.391416	804.130335	-89.716803	327.004892	742.530650	-93.025552	413.769290	794.156190	-118.690747	240.428636	627.227095	-106.097018	178.495605	643.933358	-154.471685	400.658064	461.605813	-154.273596	329.333581	479.030415	-84.021426	101.033947	941.836080	-498.321063	156.677807	876.945619	-494.213017	190.523068	891.967404	-491.873386	173.088057	789.444892	-480.734728	230.188241	664.990290	-452.407860	249.307907	661.689136	-324.803177	76.372443	259.930338	-421.638061	20.232652	217.391651	-382.586586	218.269573	156.683978	-454.234413	184.723948	549.568258	-469.698305	178.426682	465.268730	-451.823436	130.255086	391.758475	-445.446843	208.629727	459.106789	-429.460997	316.599487	176.854843	-388.895611	-215.745067	954.862062	-259.257533	-17.835177	80.920643	-461.161518	-17.819843	81.289383	-62.391939	
751	3.7550	505.796606	1341.108914	-66.979902	530.929115	1350.986814	-345.884579	468.145285	1420.267763	-212.786279	464.694493	1233.871485	-229.182229	554.185411	1098.103541	63.517881	765.202674	937.324123	-60.302064	534.103558	1117.155575	-553.473844	773.353377	923.476078	-472.560211	-108.086219	1212.489206	-298.945239	127.604982	1218.146561	-476.601346	68.533216	1243.920940	-70.004978	157.170104	1148.780279	-447.706128	100.425006	1192.459567	-116.185888	-75.680840	1291.166066	-251.274758	-62.513191	1275.908160	-341.627653	58.740654	1132.180864	-51.716095	26.191940	1070.675941	-480.330078	197.326643	1091.000724	-49.778147	286.520611	1093.100472	-56.417340	363.920097	1052.305231	-64.183698	293.576897	1127.448906	-69.450956	468.487165	1029.371955	-77.209340	484.772703	1008.081009	-213.092305	412.705617	886.325315	-72.117319	390.045465	802.414596	-89.539141	329.502782	739.850057	-92.523807	415.388660	792.674025	-118.635466	244.977165	623.266531	-105.406424	181.413411	636.852544	-153.973422	411.205085	464.266378	-153.986206	339.114806	478.441627	-83.594709	100.768768	942.932878	-498.993354	157.114163	878.786790	-495.267354	190.753031	894.036122	-493.355755	174.695252	791.270062	-482.101601	232.312561	667.184916	-454.167639	252.994009	664.092823	-326.816787	69.176452	266.103841	-421.342526	12.285126	225.374551	-382.365563	208.498446	158.784039	-454.102690	184.189569	552.746531	-471.060783	175.969361	468.676174	-452.760468	126.100838	396.365745	-445.928655	206.174254	461.842218	-430.583783	307.622290	176.233577	-389.133666	-215.814343	954.773535	-259.213197	-17.837528	80.921088	-461.158918	-17.831809	81.285867	-62.363787	
752	3.7600	506.962478	1338.772909	-67.515043	531.414238	1347.687318	-343.732075	468.876364	1418.421014	-212.117206	464.285375	1231.885355	-226.613568	554.055810	1096.966018	63.979691	764.906420	937.178170	-60.186417	534.525237	1116.778851	-553.994500	773.202038	923.326371	-472.763137	-108.096933	1214.747364	-299.811855	127.891833	1218.396391	-476.649279	67.242953	1245.965266	-70.379627	157.009126	1148.872206	-447.910335	98.734354	1193.393819	-115.311938	-75.677030	1293.860535	-252.235493	-62.239739	1278.170331	-342.326280	56.305244	1134.428125	-51.386859	25.419987	1071.493622	-481.072103	194.747312	1092.028382	-50.068165	283.822179	1093.710833	-56.827767	360.877562	1052.304602	-64.326592	291.108107	1128.215098	-69.841768	466.547666	1028.386221	-78.246577	481.900875	1007.071692	-213.740243	412.946338	883.570770	-71.918534	391.182887	799.357240	-89.241579	331.404344	736.130279	-91.849883	416.482623	789.832583	-118.449533	248.789972	617.732813	-104.897628	184.420918	629.139639	-153.013735	421.234769	466.242710	-153.577759	348.687566	477.012256	-83.118106	100.691494	944.208682	-499.513764	157.864743	880.796839	-496.082231	191.369440	896.568461	-494.597824	176.695759	793.509949	-483.507763	235.115782	669.515153	-455.947256	257.013976	666.717847	-329.081989	62.228889	272.930856	-421.139140	4.978762	233.767241	-381.731766	199.068632	161.663473	-454.031381	184.080621	556.308581	-472.427123	173.937817	472.560590	-453.659220	122.445917	401.440849	-446.264062	204.112593	465.105445	-431.612985	298.872826	176.115375	-389.385290	-215.819264	954.730796	-259.148453	-17.850585	80.923741	-461.144242	-17.848702	81.279845	-62.374983	
753	3.7650	507.575610	1336.208902	-68.490843	531.843088	1344.165288	-341.786311	469.607703	1416.620675	-211.648540	463.074986	1230.002773	-224.310999	554.103931	1095.737611	64.251194	764.548765	937.111738	-60.210885	534.878299	1116.177668	-554.782251	773.150331	923.195279	-472.914710	-107.477004	1217.192255	-302.236855	127.979458	1218.773524	-476.839631	66.262203	1247.787479	-70.807354	156.585573	1149.148152	-448.098050	97.181319	1194.035001	-114.879319	-75.531988	1296.243395	-253.220556	-62.155124	1280.355492	-342.917090	54.051440	1136.312644	-51.181178	24.642813	1072.297818	-481.727301	191.832374	1093.248256	-49.889049	281.195184	1093.639151	-57.213846	357.771208	1051.327242	-64.551592	288.745485	1128.082417	-70.217646	465.873309	1025.016053	-78.983836	478.686202	1004.419475	-214.203549	412.810688	879.574251	-71.487764	391.952477	795.095432	-88.836697	333.007302	731.186612	-91.213730	417.343741	785.964365	-117.965496	252.199142	611.129449	-104.166437	187.052077	619.846345	-152.003693	430.728530	467.840253	-152.929932	357.800139	474.840456	-82.382722	100.864902	945.523785	-499.726310	158.941241	883.057335	-496.650999	192.136814	899.256178	-495.397200	179.134092	795.966537	-484.923605	238.405889	672.372930	-457.706217	261.446137	669.659927	-331.318775	56.093136	280.396462	-420.743349	-1.805495	242.914096	-381.149527	189.920969	165.088127	-453.824126	184.371001	560.346789	-473.666204	172.349816	476.889555	-454.420558	119.231161	407.012597	-446.547623	202.513152	468.819088	-432.614003	290.295491	176.500798	-389.570014	-215.831120	954.714473	-259.138953	-17.853093	80.938907	-461.161847	-17.849196	81.271036	-62.374264	
754	3.7700	508.905383	1333.389331	-68.866911	532.204492	1340.455504	-340.084028	470.280501	1414.875719	-211.362063	462.168674	1228.171816	-221.736351	554.207343	1094.565843	64.453551	764.193548	937.094616	-60.306209	535.215876	1115.372732	-555.850742	773.177734	923.005422	-473.063100	-107.558809	1219.229900	-302.567870	127.926878	1219.255965	-477.040839	65.679651	1249.317075	-71.446075	155.791868	1149.484713	-448.059812	96.235716	1194.892465	-115.177258	-75.426199	1298.628109	-253.820269	-62.072836	1282.409408	-343.444356	52.042167	1137.728292	-51.043684	23.796131	1073.002422	-482.480420	189.856714	1093.445255	-50.205048	278.712039	1092.796656	-57.582752	354.879937	1049.737527	-64.515117	286.625654	1127.084000	-70.528785	465.022055	1019.885774	-78.734144	475.495861	1000.448566	-214.691856	412.435770	874.393882	-70.991553	392.520943	789.603558	-88.231813	334.265018	725.056870	-90.399315	418.025940	780.692863	-117.540260	255.099814	603.342092	-103.323916	189.005234	609.389036	-150.929059	439.668158	469.190136	-152.121205	366.188900	471.578154	-81.867317	101.253478	946.963446	-499.839869	160.301467	885.446172	-496.983050	193.163587	902.218120	-495.750565	182.081501	798.607657	-486.023258	242.176656	675.475557	-459.368123	265.994993	673.330816	-333.042494	50.463353	288.445141	-420.518548	-8.072894	252.818442	-380.563538	181.097623	169.282090	-453.516248	184.944700	564.735297	-474.624774	171.132290	481.680686	-455.085216	116.437544	413.120023	-446.761733	201.340741	473.113479	-433.598724	281.853478	177.302075	-389.507464	-215.851416	954.685334	-259.145826	-17.850735	80.971808	-461.152287	-17.852007	81.276006	-62.356055	
755	3.7750	509.524797	1331.234106	-69.163096	532.444133	1336.560545	-338.621052	470.914850	1413.244306	-211.277249	460.772996	1226.514424	-219.235659	554.367120	1093.398482	64.452608	763.956700	937.099970	-60.431449	535.421122	1114.282661	-556.809849	773.209773	922.842710	-473.267615	-107.473770	1221.129850	-303.415050	127.747675	1219.753147	-477.525540	65.361651	1250.538473	-71.766471	154.867861	1149.966436	-448.153724	95.698999	1195.437741	-115.525041	-75.199027	1300.682174	-254.443356	-62.043419	1284.302869	-343.814882	50.443359	1138.351680	-51.016520	23.002762	1073.639638	-483.028640	187.375397	1091.326325	-51.178434	276.687932	1091.197661	-57.857204	352.397164	1047.384469	-64.420669	284.881068	1125.473158	-70.942449	464.100808	1013.983711	-78.981883	472.379855	994.955220	-215.052974	411.842965	867.929346	-70.388302	392.857704	782.945653	-87.476549	335.193911	717.788421	-89.405693	418.221280	774.404505	-116.962768	257.466572	594.491318	-102.378615	190.758970	597.670308	-149.855486	447.948682	469.923324	-151.182424	374.385639	468.125700	-80.585268	101.830555	948.446656	-499.858544	161.935423	888.068955	-497.091842	194.491630	905.369730	-495.682327	185.326205	801.491428	-487.164227	246.328052	678.772759	-460.790548	271.274419	676.835375	-334.872345	45.419197	296.899263	-420.409630	-13.809094	263.319761	-380.058036	172.592653	173.985002	-453.176276	185.972756	569.463102	-475.720079	170.292946	486.908730	-455.648385	114.108752	419.661617	-446.796698	200.488077	477.696990	-434.429064	273.615647	178.605582	-389.324026	-215.855498	954.597762	-259.073231	-17.847395	80.954785	-461.137857	-17.848312	81.263341	-62.356305	
756	3.7800	509.975182	1329.253345	-69.314407	532.580798	1332.615876	-337.510223	471.424167	1411.763098	-211.382230	459.176988	1225.062626	-216.830380	554.551467	1092.153719	64.277336	763.865365	937.054521	-60.528518	535.414295	1113.059182	-557.867856	773.164145	922.747475	-473.634629	-107.572998	1222.703770	-303.568159	127.194948	1220.215977	-477.818020	65.368865	1251.437046	-72.003604	153.724044	1150.530428	-448.214877	95.421243	1195.603763	-115.764082	-74.910211	1302.853636	-254.525400	-62.078591	1285.930345	-343.977471	49.416212	1138.301839	-51.749524	22.293823	1074.284476	-483.527554	185.854844	1090.600202	-51.467506	275.262283	1088.938585	-57.972420	350.582206	1044.429216	-64.401092	283.710888	1123.023152	-71.439854	462.345067	1007.638635	-79.166517	469.467540	988.134455	-214.870790	411.052174	860.276649	-69.627314	392.819699	775.057358	-86.785127	335.941902	709.292200	-88.253916	417.906680	766.745148	-116.634264	259.378089	584.772574	-101.482087	192.181264	584.724133	-148.825255	455.566903	470.055950	-150.735972	382.105193	463.802043	-80.245990	102.717065	950.001787	-499.802307	163.960781	890.781255	-497.017246	196.040852	908.693444	-495.342490	188.922214	804.603496	-488.022557	250.756941	682.527628	-462.205694	276.937247	680.467905	-336.414885	40.886551	305.880371	-420.272311	-19.056722	274.189252	-379.494486	164.421149	179.244185	-452.892943	187.345275	574.503067	-476.687707	169.880707	492.533229	-456.116782	112.206343	426.660516	-446.814353	200.030568	482.763382	-435.164557	265.647211	180.527294	-389.383117	-215.867281	954.562747	-259.102337	-17.820552	80.968029	-461.142318	-17.839178	81.255979	-62.358369	
